<svg width="106" height="38" viewBox="0 0 106 38" version="1.1" xmlns="http://www.w3.org/2000/svg" xmlns:xlink="http://www.w3.org/1999/xlink">
<g id="Canvas" fill="none">
<g id="download-ios">
<g id="app-store-badge">
<g id="Group">
<g id="Shape">
<path d="M 96.3148 0L 9.24597 0C 8.89037 0 8.53904 0 8.18439 0.0019C 7.88751 0.0038 7.59299 0.0093195 7.29326 0.013965C 6.64211 0.0214717 5.99249 0.0775924 5.35004 0.18184C 4.7085 0.288356 4.08705 0.48917 3.50672 0.777489C 2.9271 1.06825 2.39748 1.44606 1.93708 1.89722C 1.47427 2.34711 1.08847 2.86712 0.79454 3.43725C 0.499794 4.00625 0.295416 4.61599 0.188465 5.24541C 0.0804974 5.87403 0.022399 6.50989 0.0146913 7.14731C 0.00569226 7.43858 0.00474193 7.73081 0 8.02212L 0 29.9807C 0.00474193 30.2756 0.00569226 30.5614 0.0146913 30.8565C 0.0224013 31.4939 0.0804997 32.1297 0.188465 32.7583C 0.295121 33.3881 0.499511 33.9982 0.79454 34.5674C 1.08834 35.1357 1.47419 35.6536 1.93708 36.101C 2.39574 36.5541 2.9257 36.9322 3.50672 37.2207C 4.08705 37.5098 4.70843 37.7118 5.35004 37.82C 5.9926 37.9234 6.64215 37.9795 7.29326 37.9879C 7.59299 37.9944 7.88751 37.9981 8.18439 37.9981C 8.53903 38 8.89039 38 9.24597 38L 96.3148 38C 96.6633 38 97.0174 38 97.366 37.9981C 97.6614 37.9981 97.9645 37.9944 98.2599 37.9879C 98.9098 37.98 99.5582 37.9238 100.199 37.82C 100.843 37.7111 101.467 37.5091 102.05 37.2207C 102.63 36.932 103.16 36.554 103.618 36.101C 104.08 35.6518 104.466 35.1343 104.764 34.5674C 105.057 33.9977 105.259 33.3877 105.364 32.7583C 105.472 32.1296 105.533 31.4939 105.544 30.8565C 105.548 30.5614 105.548 30.2756 105.548 29.9807C 105.556 29.6355 105.556 29.2923 105.556 28.9416L 105.556 9.05932C 105.556 8.71142 105.556 8.36631 105.548 8.02212C 105.548 7.73081 105.548 7.43858 105.544 7.14727C 105.533 6.5098 105.472 5.87407 105.364 5.24537C 105.259 4.61632 105.056 4.00663 104.764 3.43721C 104.165 2.29444 103.216 1.36422 102.05 0.777404C 101.467 0.489789 100.843 0.289028 100.199 0.181754C 99.5583 0.0770476 98.9099 0.0209074 98.2599 0.013832C 97.9645 0.009196 97.6614 0.003629 97.366 0.0017765C 97.0174 0 96.6633 0 96.3148 0Z" fill="#A6A6A6"/>
</g>
<g id="Shape_2">
<path d="M 7.34254 36.3375C 7.04709 36.3375 6.75877 36.3338 6.46563 36.3273C 5.85838 36.3196 5.25254 36.2678 4.65309 36.1724C 4.09414 36.0781 3.55266 35.9026 3.04652 35.6519C 2.54502 35.4032 2.08761 35.0771 1.69182 34.6861C 1.2903 34.2997 0.956014 33.8516 0.702213 33.3594C 0.445615 32.8641 0.268033 32.3331 0.175655 31.7851C 0.0758945 31.1962 0.0219199 30.6007 0.0141967 30.0038C 0.00804867 29.8035 0 29.1364 0 29.1364L 0 7.19087C 0 7.19087 0.00857232 6.53403 0.0142452 6.34106C 0.0216401 5.74511 0.0753008 5.15057 0.174763 4.56259C 0.267312 4.01304 0.44503 3.48056 0.701767 2.9836C 0.954635 2.4918 1.28706 2.04332 1.68617 1.65555C 2.08482 1.26409 2.54369 0.936324 3.04604 0.684199C 3.55102 0.434239 4.09148 0.260046 4.6493 0.167456C 5.25072 0.0710943 5.85866 0.0189963 6.46802 0.0115995L 7.34302 0L 96.5146 0L 97.4 0.012065C 98.0038 0.0190942 98.6062 0.0707275 99.2021 0.166525C 99.7656 0.260276 100.312 0.435685 100.822 0.686983C 101.829 1.19509 102.648 1.99895 103.164 2.98592C 103.417 3.47945 103.592 4.00758 103.683 4.5524C 103.784 5.1452 103.84 5.74441 103.852 6.34525C 103.855 6.61429 103.855 6.90328 103.855 7.19088C 103.862 7.54713 103.862 7.88621 103.862 8.22808L 103.862 28.1103C 103.862 28.4554 103.862 28.7922 103.855 29.1317C 103.855 29.4407 103.855 29.7237 103.851 30.015C 103.84 30.6051 103.784 31.1936 103.685 31.7758C 103.595 32.3278 103.418 32.8629 103.162 33.3623C 102.906 33.8491 102.574 34.2933 102.177 34.6787C 101.781 35.0718 101.322 35.3998 100.82 35.6501C 100.31 35.9028 99.7651 36.0788 99.2022 36.1724C 98.6028 36.2683 97.9969 36.3201 97.3896 36.3273C 97.1056 36.3338 96.8082 36.3375 96.5194 36.3375L 95.4682 36.3394L 7.34254 36.3375Z" transform="translate(0.845703 0.831543)" fill="black"/>
</g>
</g>
<g id="Group_2">
<g id="Shape_3">
<path fill-rule="evenodd" clip-rule="evenodd" d="M 2.552 7.36841L 6.39697 7.36841L 7.31958 10.0977L 8.97607 10.0977L 5.33423 0L 3.64209 0L 0 10.0979L 1.62866 10.0979L 2.552 7.36841ZM 5.99756 6.10791L 2.94971 6.10791L 4.45312 1.67847L 4.49512 1.67847L 5.99756 6.10791Z" transform="translate(33.728 8.35938)" fill="white"/>
</g>
<g id="Shape_4">
<path fill-rule="evenodd" clip-rule="evenodd" d="M 3.85864 7.51723C 5.70459 7.51723 6.92773 6.04751 6.92773 3.75966C 6.92773 1.47817 5.69751 0.00111868 3.83081 0.00136282C 2.87036 -0.029643 1.97046 0.470357 1.48901 1.30288L 1.46118 1.30288L 1.46118 0.0782671L 0 0.0782671L 0 9.87587L 1.50952 9.87587L 1.50952 6.22939L 1.54443 6.22939C 2.00562 7.06704 2.9043 7.56728 3.85864 7.51723ZM 3.43188 1.28945C 4.60596 1.28945 5.37549 2.26943 5.37549 3.75991C 5.37549 5.26381 4.60596 6.23671 3.43188 6.23671C 2.27856 6.23671 1.50269 5.24331 1.50269 3.75991C 1.50269 2.28994 2.27856 1.28945 3.43188 1.28945Z" transform="translate(43.6423 11.0156)" fill="white"/>
</g>
<g id="Shape_5">
<path fill-rule="evenodd" clip-rule="evenodd" d="M 3.85864 7.51723C 5.70459 7.51723 6.92822 6.04751 6.92822 3.75966C 6.92822 1.47817 5.69751 0.00111868 3.83081 0.00136282C 2.87036 -0.029643 1.97046 0.470357 1.48901 1.30288L 1.46118 1.30288L 1.46118 0.0782671L 0 0.0782671L 0 9.87587L 1.50952 9.87587L 1.50952 6.22939L 1.54443 6.22939C 2.00562 7.06704 2.9043 7.56728 3.85864 7.51723ZM 3.43213 1.28945C 4.6062 1.28945 5.37573 2.26943 5.37573 3.75991C 5.37573 5.26381 4.6062 6.23671 3.43213 6.23671C 2.27881 6.23671 1.50293 5.24331 1.50293 3.75991C 1.50293 2.28994 2.27881 1.28945 3.43213 1.28945Z" transform="translate(51.7366 11.0156)" fill="white"/>
</g>
<g id="Shape_6">
<path d="M 1.54533 7.45262C 1.65718 8.45397 2.62896 9.11149 3.95693 9.11149C 5.22936 9.11149 6.14482 8.45397 6.14482 7.55108C 6.14482 6.76733 5.59269 6.29804 4.28535 5.97638L 2.97801 5.66113C 1.12568 5.21326 0.265757 4.3461 0.265757 2.93896C 0.265757 1.19666 1.78253 0 3.93551 0C 6.06787 0 7.52911 1.19671 7.57829 2.93896L 6.05438 2.93896C 5.96315 1.93125 5.13098 1.32301 3.91489 1.32301C 2.6988 1.32301 1.86661 1.93844 1.86661 2.83418C 1.86661 3.54808 2.39807 3.96816 3.69832 4.28976L 4.80972 4.56294C 6.87942 5.0529 7.73854 5.88511 7.73854 7.36213C 7.73854 9.25129 6.23606 10.4345 3.84508 10.4345C 1.608 10.4345 0.0975794 9.27908 0 7.45266L 1.54533 7.45262Z" transform="translate(62.4685 8.18994)" fill="white"/>
</g>
<g id="Shape_7">
<path d="M 2.58612 6.65e-05L 2.58612 1.74237L 3.98469 1.74237L 3.98469 2.93907L 2.58612 2.93907L 2.58612 6.9977C 2.58612 7.62821 2.86615 7.92205 3.48095 7.92205C 3.64698 7.91916 3.81275 7.9075 3.97755 7.88711L 3.97755 9.07667C 3.70114 9.12837 3.42019 9.15178 3.13904 9.14655C 1.65001 9.14655 1.06935 8.58672 1.06935 7.15892L 1.06935 2.93902L 0 2.93902L 0 1.7423L 1.06935 1.7423L 1.06935 0L 2.58612 6.65e-05Z" transform="translate(70.8811 9.35132)" fill="white"/>
</g>
<g id="Shape_8">
<path fill-rule="evenodd" clip-rule="evenodd" d="M 3.48804 0C 1.36279 0 0 1.45557 0 3.77197C 0 6.09473 1.34937 7.54395 3.48804 7.54395C 5.62769 7.54395 6.97705 6.09473 6.97705 3.77197C 6.97705 1.45557 5.62036 0 3.48804 0ZM 3.48804 1.24487C 4.71143 1.24487 5.43872 2.18262 5.43872 3.77173C 5.43872 5.36694 4.71143 6.29785 3.48804 6.29785C 2.26489 6.29785 1.53735 5.36694 1.53735 3.77173C 1.53735 2.18994 2.26489 1.24487 3.48804 1.24487Z" transform="translate(75.6743 11.0039)" fill="white"/>
</g>
<g id="Shape_9">
<path d="M 0 0.078355L 1.43982 0.078355L 1.43982 1.3314L 1.4747 1.3314C 1.67549 0.524758 2.41384 -0.0304108 3.2437 0.00129105C 3.41767 0.000682625 3.59116 0.0195948 3.76092 0.0576735L 3.76092 1.47117C 3.5413 1.40399 3.3122 1.37314 3.08265 1.37985C 2.63883 1.36182 2.2093 1.53888 1.90686 1.86454C 1.60442 2.19019 1.45928 2.63191 1.50956 3.0737L 1.50956 7.44045L 0 7.44045L 0 0.078355Z" transform="translate(83.8965 11.0154)" fill="white"/>
</g>
<g id="Shape_10">
<path fill-rule="evenodd" clip-rule="evenodd" d="M 3.46753 7.54395C 4.93774 7.69214 6.29102 6.72925 6.63428 5.29028L 5.20093 5.29028C 4.92578 5.97339 4.23486 6.39453 3.50244 6.32568C 2.95312 6.34595 2.42163 6.12915 2.04297 5.72998C 1.66455 5.33105 1.47534 4.78857 1.52393 4.24048L 1.52393 4.14917L 6.71826 4.14917L 6.71826 3.63135C 6.71826 1.39917 5.43872 0 3.40405 0C 1.33521 0 0 1.49756 0 3.80688C 0 6.10889 1.32788 7.54395 3.46753 7.54395ZM 5.20898 3.09302L 1.53198 3.09302C 1.53076 2.59595 1.72778 2.11914 2.07959 1.76807C 2.43115 1.41724 2.90845 1.22168 3.40503 1.22461C 3.89771 1.21387 4.37231 1.40967 4.71484 1.76416C 5.05713 2.1189 5.23633 2.60059 5.20898 3.09302Z" transform="translate(87.9829 11.0039)" fill="white"/>
</g>
</g>
<g id="Group_3">
<g id="Shape_11">
<path fill-rule="evenodd" clip-rule="evenodd" d="M 2.01025 5.79565L 1.94775 6.57397C 2.32202 6.66626 2.70581 6.71411 3.09131 6.7168C 3.53125 6.75952 3.95386 6.53394 4.16357 6.14429C 4.55298 5.31543 4.73096 4.40283 4.68164 3.48828C 4.68164 2.28955 4.13672 1.72656 3.00195 1.72656L 2.65332 1.72656C 2.77856 1.19019 2.87671 0.643799 2.95728 0.0983887L 2.08154 0C 2.02197 0.604004 1.92944 1.2041 1.80444 1.79785C 1.19702 1.85181 0.544922 1.94092 0 2.03906L 0.160889 2.8269C 0.641113 2.71851 1.1272 2.6377 1.6167 2.58472C 1.30664 3.81445 0.7771 4.97803 0.0532227 6.01904L 0.795166 6.42188C 1.56567 5.21729 2.13306 3.8938 2.47461 2.50488L 2.52808 2.5022C 2.68555 2.4939 2.82861 2.48633 2.95728 2.48633C 3.5918 2.48633 3.84155 2.71924 3.84155 3.52441C 3.89917 4.28101 3.75757 5.03955 3.43091 5.72412C 3.29663 5.9126 3.18945 5.93945 2.91235 5.93945C 2.60596 5.93823 2.30176 5.88989 2.01025 5.79565ZM 5.47681 1.3147L 4.82446 1.75342C 5.65649 2.53247 6.13428 3.61816 6.14697 4.75854L 7.00464 4.62476C 6.92651 3.36914 6.38159 2.18823 5.47681 1.3147Z" transform="translate(33.6877 22.6968)" fill="white"/>
</g>
<g id="Shape_12">
<path fill-rule="evenodd" clip-rule="evenodd" d="M 0.845214 0L 0.621825 0.787598C 1.81689 0.946533 2.99512 1.21289 4.14233 1.58374L 4.35669 0.805176C 3.20752 0.451172 2.03393 0.182129 0.845214 0ZM 1.27466 5.92065L 1.45288 6.72607C 1.5271 6.72607 1.6084 6.72852 1.68555 6.73096C 1.75757 6.73315 1.82617 6.73511 1.88208 6.73511C 4.2854 6.73511 5.28613 5.95679 5.28613 4.68677C 5.28613 3.68481 4.54468 3.06787 3.34741 3.06787C 2.47143 3.10547 1.62451 3.39429 0.907958 3.90015C 0.850829 3.0686 1.09155 2.24414 1.58691 1.57422L 0.791747 1.31543C 0.169432 2.31616 -0.0981457 3.49756 0.0322254 4.66919L 0.720458 4.97363C 1.36206 4.28735 2.2334 3.86084 3.16846 3.7749C 4.02612 3.7749 4.4104 4.1145 4.4104 4.70459C 4.4104 5.44751 3.74023 5.94775 1.97143 5.94775C 1.79272 5.94775 1.4978 5.93921 1.27466 5.92065Z" transform="translate(42.2024 22.6697)" fill="white"/>
</g>
<g id="Shape_13">
<path fill-rule="evenodd" clip-rule="evenodd" d="M 6.47705 0L 5.96777 0.241211C 6.21558 0.589355 6.41675 0.968262 6.56641 1.36841L 7.12939 1.1272C 6.95337 0.729004 6.73462 0.351074 6.47705 0ZM 4.85132 0.331787L 5.35181 0.0895996C 5.60571 0.430176 5.81885 0.799316 5.98608 1.18994L 5.4231 1.44971C 5.28149 1.05396 5.08936 0.678223 4.85132 0.331787ZM 1.08154 6.57397C 2.00293 6.27051 2.83057 5.73438 3.48462 5.01733C 2.96655 4.5874 2.40698 4.21021 1.81421 3.89111L 2.30542 3.27417C 2.90308 3.57837 3.47119 3.9375 4.00269 4.34668C 4.42969 3.72339 4.72754 3.02075 4.87866 2.28052L 2.6001 2.28052C 2.07666 3.12939 1.4187 3.8877 0.652344 4.52563L 0 3.9624C 1.10303 3.05176 1.95752 1.87622 2.48438 0.545654L 3.34204 0.751709L 3.30518 0.845459C 3.21899 1.06641 3.1311 1.29102 3.0293 1.50317L 5.24512 1.50317L 5.87964 1.7981C 5.56592 4.27124 3.92261 6.37305 1.59961 7.27173L 1.08154 6.57397Z" transform="translate(48.9939 22.2051)" fill="white"/>
</g>
<g id="Shape_14">
<path d="M 1.9657 6.7437L 1.51017 6.01913C 3.41836 5.71433 4.78109 4.00553 4.65526 2.07533L 0.90269 2.07533L 0.90269 3.87328L 0 3.87328L 0 1.3146L 2.24281 1.3146L 2.24281 0L 3.14503 0L 3.14503 1.3146L 4.81603 1.3146L 5.63809 1.54746C 5.53059 4.0876 4.68211 6.02841 1.9657 6.7437Z" transform="translate(56.906 22.6968)" fill="white"/>
</g>
<g id="Shape_15">
<path fill-rule="evenodd" clip-rule="evenodd" d="M 0.500488 0L 0 0.733887C 0.76123 1.10254 1.4751 1.56201 2.12598 2.10229L 2.698 1.33325C 2.01953 0.804932 1.28198 0.357666 0.500488 0ZM 5.3252 1.42188C 4.30786 3.42285 2.38745 4.80884 0.169434 5.14307L 0.509521 5.97437C 2.81543 5.58447 4.81128 4.14819 5.91455 2.08423L 5.3252 1.42188Z" transform="translate(64.2827 23.3406)" fill="white"/>
</g>
<g id="Shape_16">
<path fill-rule="evenodd" clip-rule="evenodd" d="M 0 5.32251L 5.62012 5.32251L 5.62012 0L 0 0L 0 5.32251ZM 0.885254 4.49951L 0.885254 0.822998L 4.72681 0.822998L 4.72681 4.49951L 0.885254 4.49951Z" transform="translate(71.8999 23.5908)" fill="white"/>
</g>
<g id="Shape_17">
<path d="M 6.31699 0.912L 0 0.912L 0 0L 6.31699 0L 6.31699 0.912Z" transform="translate(79.2495 25.6125)" fill="white"/>
</g>
<g id="Shape_18">
<path fill-rule="evenodd" clip-rule="evenodd" d="M 3.65381 0L 3.11719 0.250488C 3.37329 0.632812 3.5835 1.04419 3.74268 1.47607L 4.32397 1.21631C 4.1499 0.7854 3.92505 0.376953 3.65381 0ZM 0 0.152344L 0.884277 0.152344L 0.884277 2.44189C 2.06006 2.93188 3.20068 3.50293 4.29761 4.15088L 3.79712 4.9375C 2.86743 4.34204 1.8938 3.81885 0.884277 3.37256L 0.884277 6.82446L 0 6.82446L 0 0.152344ZM 2.09839 0.63501L 2.62573 0.384521C 2.88403 0.763672 3.09717 1.17188 3.2605 1.60083L 2.67944 1.8606C 2.53955 1.42847 2.34424 1.0166 2.09839 0.63501Z" transform="translate(87.7153 22.5713)" fill="white"/>
</g>
</g>
<g id="_Group_">
<g id="_Group_2">
<g id="_Path_">
<path d="M 14.0431 6.01129C 14.0639 4.39964 14.9079 2.91097 16.2796 2.06683C 15.4103 0.824131 14.0066 0.0644781 12.4918 0.0170367C 10.8982 -0.15041 9.3532 0.971625 8.54111 0.971625C 7.71329 0.971625 6.46295 0.0336617 5.11653 0.0613922C 3.34499 0.118685 1.73347 1.10249 0.871584 2.65287C -0.963844 5.83387 0.40522 10.5089 2.16341 13.0801C 3.04306 14.3392 4.07113 15.7457 5.41633 15.6958C 6.7327 15.6411 7.22433 14.8555 8.8133 14.8555C 10.3875 14.8555 10.8488 15.6958 12.2213 15.6641C 13.6338 15.6411 14.5237 14.3994 15.3725 13.1284C 16.0046 12.2312 16.4909 11.2397 16.8136 10.1905C 15.1359 9.48021 14.0451 7.83468 14.0431 6.01129L 14.0431 6.01129Z" transform="translate(10.5188 13.2744)" fill="white"/>
</g>
<g id="_Path_2">
<path d="M 3.08109 3.31609C 3.85126 2.39059 4.23069 1.20102 4.13881 0C 2.96217 0.123709 1.87528 0.686641 1.09471 1.57663C 0.323937 2.45472 -0.0665368 3.6035 0.00929595 4.76995C 1.20171 4.78224 2.33389 4.24639 3.08109 3.31609L 3.08109 3.31609Z" transform="translate(18.8882 8.28467)" fill="white"/>
</g>
</g>
</g>
</g>
</g>
</g>
</svg>

