<svg fill="none" height="39" width="300" xmlns="http://www.w3.org/2000/svg"><clipPath id="a"><path d="M0 0h300v39H0z"/></clipPath><g clip-path="url(#a)"><path d="M42.408 30.77V11.21h2.468l.17 1.828.145-.229c.755-1.176 2.364-1.936 4.103-1.936 3.492 0 6.024 2.927 6.024 6.962 0 4.05-2.534 6.99-6.024 6.99-1.67 0-3.28-.763-4.005-1.896l-.172-.27v8.11zm6.375-17.443c-2.054 0-3.662 1.537-3.662 3.5v2.018c0 1.962 1.61 3.499 3.662 3.499 2.291 0 3.77-1.77 3.77-4.507.002-2.74-1.479-4.51-3.77-4.51zM58.787 24.488V11.21h2.441l.2 2.13.145-.302c.63-1.304 1.911-2.08 3.427-2.08.464 0 .902.077 1.272.224l.004.002v2.508l-.008-.002a8.27 8.27 0 00-1.133-.084c-2.413 0-3.637 1.403-3.637 4.173v6.709zM74.703 24.824c-3.834 0-6.618-2.94-6.618-6.99 0-4.034 2.784-6.961 6.618-6.961 3.835 0 6.619 2.927 6.619 6.962 0 4.05-2.784 6.99-6.619 6.99zm0-11.497c-2.268 0-3.85 1.855-3.85 4.508 0 2.713 1.547 4.535 3.85 4.535 2.304 0 3.852-1.822 3.852-4.535.002-2.653-1.583-4.508-3.852-4.508zM90.611 31.106c-3.246 0-5.637-1.688-6.24-4.408l-.002-.006 2.549-.706.002.006c.538 1.733 1.857 2.688 3.718 2.688 2.393 0 3.88-1.587 3.88-4.143v-2.135l-.17.253c-.789 1.165-2.374 1.889-4.14 1.889-3.475 0-5.997-2.87-5.997-6.822 0-3.905 2.578-6.849 5.997-6.849 1.766 0 3.397.76 4.157 1.938l.146.227.17-1.828h2.44v13.243c0 4.104-2.494 6.653-6.51 6.653zm.135-17.779c-2.22 0-3.77 1.807-3.77 4.395s1.552 4.395 3.77 4.395c2.055 0 3.663-1.524 3.663-3.47v-1.85c0-1.946-1.608-3.47-3.663-3.47zM106.42 24.824c-3.492 0-6.024-2.94-6.024-6.99 0-4.034 2.534-6.961 6.024-6.961 1.753 0 3.375.76 4.129 1.939l.146.226.17-1.828h2.441v13.277h-2.441l-.17-1.828-.146.229c-.754 1.176-2.374 1.936-4.129 1.936zm.513-11.497c-2.256 0-3.771 1.812-3.771 4.508 0 2.739 1.479 4.507 3.771 4.507 2.087 0 3.664-1.505 3.664-3.5v-2.018c0-1.96-1.61-3.497-3.664-3.497zM123.68 24.824c-3.141 0-4.541-1.55-4.541-5.025v-6.163h-2.24V11.21h2.24V7.9h2.713v3.31h3.508v2.426h-3.508v6.079c0 2.007.61 2.685 2.422 2.685.311 0 .77-.02 1.186-.112l.008-.002v2.342l-.004.002c-.496.127-1.113.194-1.784.194zM134.577 24.824c-3.866 0-6.564-2.838-6.564-6.905 0-4.082 2.783-7.046 6.618-7.046 3.652 0 6.105 2.616 6.105 6.513 0 .375-.025.71-.081 1.122v.007h-9.902l.01.107c.239 2.384 1.685 3.804 3.868 3.804 1.533 0 2.699-.706 3.367-2.044l.003-.005 2.44.676-.002.007c-.853 2.322-3.101 3.764-5.862 3.764zm.054-11.637c-1.928 0-3.292 1.146-3.743 3.147l-.027.12h7.164l-.016-.113c-.31-2.034-1.51-3.154-3.378-3.154z" fill="#151219"/><path d="M11.111 38.998c-1.373-.09-3.292-.494-5.409-1.136-1.944-.589-4.532-1.623-4.553-3.769-.017-1.537.841-2.853 2.62-4.025.79-.523 1.973-1.125 2.486-1.371a58.68 58.68 0 013.452-1.509V8.084l-6.882-.773v20.566c0 .811-.633 1.357-1.415 1.357-.78 0-1.41-.548-1.41-1.36V5.673c0-.417.17-.816.47-1.095a1.386 1.386 0 011.098-.366l9.71 1.09c.718.08 1.263.708 1.263 1.461v19.225a94.498 94.498 0 003.751-1.673c3.521-1.67 5.902-3.39 7.277-5.248 1.651-2.234 1.903-5 1.824-6.925-.085-2.078-.727-3.948-1.961-5.711-.644-.922-1.84-2.153-3.276-2.804-1.057-.482-1.942-.7-2.603-.79-.955-.134-1.402-.832-1.35-1.527.052-.712.6-1.22 1.388-1.288 1.348-.117 2.349.237 3.714.87 2.638 1.223 4.296 3.514 4.476 3.77 1.552 2.215 2.393 4.69 2.501 7.35.086 2.086-.162 3.932-.756 5.646-.382 1.1-.97 2.206-1.703 3.197-2.48 3.354-6.87 5.428-8.311 6.108-1.357.642-4.383 1.943-4.973 2.196v8.367c0 .425-.177.829-.487 1.107-.243.22-.59.363-.884.363-.02.004-.038.002-.057.002zM9.71 30.353c-.864.317-2.191.83-2.688 1.07-.473.229-1.903.92-2.522 1.481-.153.14-.65.628-.527 1.023.112.363.698.609 2.977 1.246.808.226 1.759.444 2.76.632z" fill="#380953"/><g fill="#151219"><path d="M159.297 0h-.312v31.905h.312zM180.055 11.862v1.72h3.266v1.23h-3.266v10.204h-1.373V14.813h-2.247v-1.23h2.247v-1.698c0-2.925 1.326-4.377 3.525-4.377.474 0 .9.073 1.23.146V8.86c-.26-.05-.567-.1-.97-.1-1.583.003-2.412.84-2.412 3.103zM184.22 19.311c0-3.54 2.366-6.025 5.584-6.025s5.609 2.483 5.609 6.025c0 3.516-2.389 5.999-5.609 5.999s-5.584-2.482-5.584-5.999zm9.772 0c0-2.877-1.799-4.77-4.188-4.77s-4.188 1.893-4.188 4.77c0 2.852 1.799 4.745 4.188 4.745s4.188-1.893 4.188-4.745zM203.954 13.582v1.23a5.268 5.268 0 00-1.065-.122c-1.963 0-3.336 1.35-3.336 4.179v6.147h-1.373V13.582h1.229l.119 2.14h.023c.521-1.475 1.821-2.336 3.265-2.336.428 0 .806.073 1.138.196zM222.648 20.615c0 2.68-1.799 4.401-5.205 4.401h-6.035V7.803h5.135c3.525 0 5.443 1.794 5.443 4.918 0 2.016-.804 3.32-2.462 3.959v.05c2.059.491 3.124 1.795 3.124 3.885zm-9.796-11.508v7.106h3.787c2.673 0 3.903-1.057 3.903-3.443 0-2.434-1.278-3.663-3.903-3.663zm8.328 11.458c0-1.992-1.184-3.074-3.833-3.074h-4.495v6.221h4.543c2.58 0 3.785-1.154 3.785-3.147zM235.213 13.582v11.434h-1.229l-.096-1.992h-.048c-.71 1.45-2.177 2.286-3.88 2.286-2.343 0-3.928-1.623-3.928-4.548v-7.18h1.373v6.713c0 2.632 1.088 3.737 2.887 3.737 2.059 0 3.55-1.4 3.55-4.056v-6.394zM238.361 22.115l1.254-.32c.426 1.574 1.563 2.336 3.125 2.336 1.751 0 2.792-.934 2.792-2.238 0-1.008-.64-1.598-2.626-2.016l-1.23-.246c-2.177-.443-3.147-1.427-3.147-2.975 0-1.943 1.61-3.37 4.069-3.37 2.155 0 3.669 1.108 4.047 2.951l-1.255.296c-.403-1.401-1.396-2.066-2.839-2.066-1.656 0-2.699.836-2.699 2.116 0 .934.522 1.474 2.508 1.893l1.229.246c2.319.466 3.289 1.427 3.289 3.074 0 2.04-1.562 3.516-4.14 3.516-2.273-.002-3.976-1.157-4.377-3.197zM249.528 10.042c0-.64.497-1.155 1.089-1.155s1.088.516 1.088 1.155-.496 1.131-1.088 1.131-1.089-.492-1.089-1.131zm.403 3.54h1.373v11.434h-1.373zM264.626 17.884v7.13h-1.373v-6.661c0-2.681-1.066-3.787-2.958-3.787-2.106 0-3.596 1.427-3.596 4.056v6.394h-1.373V13.582h1.23l.095 1.992h.048c.711-1.45 2.154-2.286 3.928-2.286 2.46-.002 3.999 1.622 3.999 4.596zM278.351 19.607h-9.182c.118 2.851 1.845 4.45 4.14 4.45 1.61 0 2.91-.785 3.621-2.261l1.229.393c-.758 1.916-2.602 3.123-4.873 3.123-3.195 0-5.49-2.362-5.49-5.951 0-3.616 2.389-6.075 5.536-6.075 2.933 0 5.064 2.19 5.064 5.606 0 .246 0 .469-.045.715zm-9.134-1.157h7.808c-.166-2.606-1.633-3.96-3.691-3.96-2.154 0-3.81 1.454-4.117 3.96zM280.787 22.115l1.255-.32c.426 1.574 1.562 2.336 3.124 2.336 1.751 0 2.792-.934 2.792-2.238 0-1.008-.64-1.598-2.626-2.016l-1.23-.246c-2.177-.443-3.147-1.427-3.147-2.975 0-1.943 1.61-3.37 4.07-3.37 2.154 0 3.668 1.108 4.046 2.951l-1.254.296c-.403-1.401-1.396-2.066-2.84-2.066-1.656 0-2.698.836-2.698 2.116 0 .934.521 1.474 2.507 1.893l1.23.246c2.318.466 3.288 1.427 3.288 3.074 0 2.04-1.562 3.516-4.14 3.516-2.271-.002-3.974-1.157-4.377-3.197zM291.483 22.115l1.255-.32c.426 1.574 1.562 2.336 3.124 2.336 1.751 0 2.792-.934 2.792-2.238 0-1.008-.64-1.598-2.626-2.016l-1.229-.246c-2.177-.443-3.147-1.427-3.147-2.975 0-1.943 1.609-3.37 4.069-3.37 2.154 0 3.668 1.108 4.046 2.951l-1.254.296c-.403-1.401-1.396-2.066-2.84-2.066-1.655 0-2.698.836-2.698 2.116 0 .934.521 1.474 2.507 1.893l1.23.246c2.318.466 3.288 1.427 3.288 3.074 0 2.04-1.562 3.516-4.14 3.516-2.27-.002-3.976-1.157-4.377-3.197z"/></g></g></svg>