<svg width="118" height="38" viewBox="0 0 118 38" version="1.1" xmlns="http://www.w3.org/2000/svg" xmlns:xlink="http://www.w3.org/1999/xlink">
<g id="Canvas" fill="none">
<g id="download-android">
<g id="artwork">
<g id="Group">
<g id="Group_2">
<g id="Vector">
<path d="M 113.208 38L 4.35417 38C 1.91583 38 0 35.91 0 33.25L 0 4.75C 0 2.09 1.91583 0 4.35417 0L 113.208 0C 115.647 0 117.562 2.09 117.562 4.75L 117.562 33.25C 117.562 35.815 115.647 38 113.208 38Z" fill="black"/>
</g>
</g>
<g id="Group_3">
<g id="Group_4">
<g id="Vector_2">
<path d="M 113.208 0.76C 115.211 0.76 116.866 2.565 116.866 4.75L 116.866 33.25C 116.866 35.435 115.211 37.24 113.208 37.24L 4.35417 37.24C 2.35125 37.24 0.696667 35.435 0.696667 33.25L 0.696667 4.75C 0.696667 2.565 2.35125 0.76 4.35417 0.76L 113.208 0.76ZM 113.208 0L 4.35417 0C 1.91583 0 0 2.09 0 4.75L 0 33.25C 0 35.91 1.91583 38 4.35417 38L 113.208 38C 115.647 38 117.562 35.91 117.562 33.25L 117.562 4.75C 117.562 2.185 115.647 0 113.208 0Z" fill="#A6A6A6"/>
</g>
</g>
</g>
<g id="Vector_3">
<path d="M 22.7442 3.91813C 20.7374 3.91813 19.2084 5.44715 19.2084 7.454C 19.2084 9.46084 20.833 10.9899 22.7442 10.9899C 24.7511 10.9899 26.2801 9.46084 26.2801 7.454C 26.3757 5.44715 24.7511 3.91813 22.7442 3.91813ZM 22.7442 9.65197C 21.693 9.65197 20.7374 8.79189 20.7374 7.454C 20.7374 6.21166 21.693 5.25602 22.7442 5.25602C 23.7955 5.25602 24.7511 6.1161 24.7511 7.454C 24.7511 8.69633 23.891 9.65197 22.7442 9.65197ZM 15.0036 3.91813C 12.9967 3.91813 11.4677 5.44715 11.4677 7.454C 11.4677 9.46084 13.0923 10.9899 15.0036 10.9899C 16.9148 10.9899 18.5394 9.46084 18.5394 7.454C 18.5394 5.44715 16.9148 3.91813 15.0036 3.91813ZM 15.0036 9.65197C 13.9524 9.65197 12.9967 8.79189 12.9967 7.454C 12.9967 6.21166 13.9524 5.25602 15.0036 5.25602C 16.0548 5.25602 17.0104 6.1161 17.0104 7.454C 17.0104 8.69633 16.0548 9.65197 15.0036 9.65197ZM 5.73385 4.96933L 5.73385 6.49836L 9.36528 6.49836C 9.26972 7.35843 8.98302 7.93182 8.5052 8.40964C 8.02738 8.88746 7.16731 9.55641 5.73385 9.55641C 3.53587 9.55641 1.81572 7.74069 1.81572 5.54272C 1.81572 3.34474 3.53587 1.52902 5.73385 1.52902C 6.97618 1.52902 7.83625 2.00684 8.40964 2.58023L 9.46084 1.52902C 8.60077 0.668948 7.35843 7.29096e-07 5.63828 7.29096e-07C 2.58023 7.29096e-07 1.45819e-06 2.48467 1.45819e-06 5.54272C 1.45819e-06 8.60077 2.58023 11.0854 5.63828 11.0854C 7.26287 11.0854 8.5052 10.512 9.46084 9.55641C 10.4165 8.60077 10.7987 7.16731 10.7987 6.02054C 10.7987 5.63828 10.7987 5.35159 10.7032 5.0649L 5.73385 5.0649L 5.73385 4.96933ZM 43.5772 6.21167C 43.2905 5.44715 42.3349 3.91813 40.5192 3.91813C 38.7034 3.91813 37.1744 5.35159 37.1744 7.454C 37.1744 9.46084 38.7034 10.9899 40.7103 10.9899C 42.3349 10.9899 43.2905 10.0342 43.6728 9.46084L 42.4304 8.69633C 42.0482 9.26971 41.4748 9.65197 40.7103 9.65197C 39.9458 9.65197 39.3724 9.26972 38.9901 8.60077L 43.7683 6.59392L 43.5772 6.21167ZM 38.7034 7.35843C 38.7034 6.02054 39.7547 5.25602 40.5192 5.25602C 41.0926 5.25602 41.6659 5.54272 41.8571 6.02054L 38.7034 7.35843ZM 34.8809 10.7987L 36.4099 10.7987L 36.4099 0.382257L 34.8809 0.382257L 34.8809 10.7987ZM 32.3007 4.68264C 31.9184 4.30038 31.2494 3.91813 30.3894 3.91813C 28.5737 3.91813 26.9491 5.44715 26.9491 7.454C 26.9491 9.46084 28.5737 10.9899 30.3894 10.9899C 31.2494 10.9899 31.9184 10.6076 32.3007 10.2254L 32.3962 10.2254L 32.3962 10.7032C 32.3962 12.0411 31.6317 12.8056 30.4849 12.8056C 29.5293 12.8056 28.9559 12.1366 28.6692 11.5633L 27.3313 12.1366C 27.7136 13.0923 28.7648 14.239 30.4849 14.239C 32.3007 14.239 33.8297 13.1878 33.8297 10.512L 33.8297 4.10925L 32.3962 4.10925L 32.3962 4.68264L 32.3007 4.68264ZM 30.4849 9.65197C 29.4337 9.65197 28.4781 8.79189 28.4781 7.54956C 28.4781 6.30723 29.3382 5.35159 30.4849 5.35159C 31.5361 5.35159 32.3962 6.30723 32.3962 7.54956C 32.3962 8.69633 31.6317 9.65197 30.4849 9.65197ZM 50.9356 0.382257L 47.2087 0.382257L 47.2087 10.7987L 48.7377 10.7987L 48.7377 6.88061L 50.9356 6.88061C 52.6558 6.88061 54.376 5.63828 54.376 3.63143C 54.376 1.62459 52.6558 0.382257 50.9356 0.382257ZM 50.9356 5.35159L 48.7377 5.35159L 48.7377 1.81572L 50.9356 1.81572C 52.0824 1.81572 52.7514 2.77136 52.7514 3.63143C 52.7514 4.39595 52.0824 5.35159 50.9356 5.35159ZM 60.5876 3.91813C 59.4409 3.91813 58.2941 4.39595 57.8163 5.54272L 59.1542 6.1161C 59.4409 5.54272 60.0142 5.35159 60.5876 5.35159C 61.3521 5.35159 62.2122 5.82941 62.2122 6.68949L 62.2122 6.78505C 61.9255 6.59392 61.3521 6.40279 60.5876 6.40279C 59.0586 6.40279 57.6251 7.26287 57.6251 8.79189C 57.6251 10.2254 58.8675 11.0854 60.2054 11.0854C 61.2566 11.0854 61.83 10.6076 62.2122 10.0342L 62.3078 10.0342L 62.3078 10.7987L 63.8368 10.7987L 63.8368 6.78505C 63.7412 4.96933 62.3078 3.91813 60.5876 3.91813ZM 60.3965 9.65197C 59.9187 9.65197 59.1542 9.36528 59.1542 8.79189C 59.1542 8.02738 60.0142 7.64513 60.7787 7.64513C 61.4477 7.64513 61.83 7.83625 62.2122 8.02738C 62.1166 8.88746 61.2566 9.65197 60.3965 9.65197ZM 69.1884 4.10925L 67.3727 8.60077L 67.2771 8.60077L 65.4614 4.10925L 63.7412 4.10925L 66.5126 10.4165L 64.888 13.9524L 66.5126 13.9524L 70.813 4.10925L 69.1884 4.10925L 69.1884 4.10925ZM 55.1405 10.7987L 56.6695 10.7987L 56.6695 0.382257L 55.1405 0.382257L 55.1405 10.7987Z" transform="translate(39.0852 8.31396)" fill="white"/>
</g>
<g id="Group_5">
<g id="Vector_4">
<path d="M 0.47782 0C 0.191128 0.286692 -3.64548e-07 0.764512 -3.64548e-07 1.3379L -3.64548e-07 22.4576C -3.64548e-07 23.0309 0.191128 23.5088 0.47782 23.7955L 0.573384 23.891L 12.4233 12.0411L 12.4233 11.9455L 12.4233 11.8499L 0.47782 0Z" transform="translate(9.46069 7.16675)" fill="url(#paint0_linear)"/>
</g>
<g id="Vector_5">
<path d="M 3.91813 8.12294L 1.45819e-06 4.20482L 1.45819e-06 4.01369L 1.45819e-06 3.91813L 3.91813 -7.29096e-07L 4.01369 0.0955637L 8.69633 2.77136C 10.0342 3.53587 10.0342 4.7782 8.69633 5.54272L 3.91813 8.12294Z" transform="translate(21.8843 15.0984)" fill="url(#paint1_linear)"/>
</g>
<g id="Vector_6">
<path d="M 15.9592 4.01369L 11.9455 0L -3.64548e-07 11.9455C 0.47782 12.4233 1.14677 12.4233 2.00685 12.0411L 15.9592 4.01369Z" transform="translate(9.93872 19.1121)" fill="url(#paint2_linear)"/>
</g>
<g id="Vector_7">
<path d="M 15.9592 8.24596L 2.00685 0.314143C 1.14677 -0.163677 0.47782 -0.0681126 -3.64548e-07 0.409708L 11.9455 12.2597L 15.9592 8.24596Z" transform="translate(9.93872 6.85229)" fill="url(#paint3_linear)"/>
</g>
<g id="Group_6">
<g id="Vector_8" opacity="0.2">
<path d="M 15.8636 -1.45819e-06L 2.00685 7.83625C 1.24233 8.31407 0.573384 8.21851 0.0955641 7.83625L -3.64548e-07 7.93182L 0.0955641 8.02738C 0.573384 8.40964 1.24233 8.5052 2.00685 8.02738L 15.8636 -1.45819e-06Z" transform="translate(9.93823 23.0303)" fill="black"/>
</g>
<g id="Vector_9" opacity="0.12">
<path d="M 0.382256 1.3379C 0.0955637 1.0512 0 0.573386 0 1.45819e-06L 0 0.0955641C 0 0.668948 0.191128 1.14677 0.47782 1.43346L 0.47782 1.3379L 0.382256 1.3379Z" transform="translate(9.55591 29.5286)" fill="black"/>
</g>
</g>
<g id="Vector_10" opacity="0.12">
<path d="M 4.7782 1.24233L 0 3.91813L 0.0955626 4.01369L 4.7782 1.3379C 5.44715 0.95564 5.73384 0.47782 5.73384 0C 5.73384 0.47782 5.35159 0.860076 4.7782 1.24233Z" transform="translate(25.8025 19.1121)" fill="black"/>
</g>
<g id="Vector_11" opacity="0.25">
<path d="M 2.3891 0.413219L 21.0241 11.0208C 21.5975 11.4031 21.9797 11.7853 21.9797 12.2632C 21.9797 11.7853 21.693 11.3075 21.0241 10.9253L 2.3891 0.317654C 1.0512 -0.446858 0 0.22209 0 1.75111L 0 1.84668C 0 0.317654 1.0512 -0.351294 2.3891 0.413219Z" transform="translate(9.55591 6.84888)" fill="white"/>
</g>
</g>
</g>
</g>
<g id="Layer 3">
<g id="Group_7">
<g id="Group_8">
<g id="Vector_12">
<path d="M 0.764512 0.573384C 1.3379 0.47782 2.96249 0.382255 4.49151 0.191127C 5.44715 0.0955626 6.21166 0.0955655 6.78505 1.45819e-06L 6.78505 0.668947C 6.30723 0.668947 5.54272 0.668949 5.16046 0.764513C 3.91813 1.14677 3.24918 2.48467 3.24918 3.44031C 3.24918 5.0649 4.7782 5.63828 6.21166 5.63828L 5.92497 6.40279C 4.39595 6.30723 2.58023 5.44715 2.58023 3.63144C 2.58023 2.29354 3.34474 1.24233 4.20482 0.764513C 3.44031 0.860077 1.14677 1.05121 0.191129 1.24233L 0 0.668947C 0.382256 0.668947 0.573384 0.573384 0.764512 0.573384ZM 6.30723 3.05805L 5.82941 3.24918C 5.63828 2.86692 5.35159 2.3891 5.16046 2.00685L 5.63828 1.81572C 5.82941 2.10241 6.1161 2.67579 6.30723 3.05805ZM 7.26287 2.67579L 6.78505 2.86692C 6.59392 2.48467 6.30723 2.00684 6.02053 1.62459L 6.49835 1.43346C 6.68948 1.72015 7.07174 2.29354 7.26287 2.67579Z" transform="translate(39.1814 25.2292)" fill="white"/>
<path d="M 0.764512 0.573384C 1.3379 0.47782 2.96249 0.382255 4.49151 0.191127C 5.44715 0.0955626 6.21166 0.0955655 6.78505 1.45819e-06L 6.78505 0.668947C 6.30723 0.668947 5.54272 0.668949 5.16046 0.764513C 3.91813 1.14677 3.24918 2.48467 3.24918 3.44031C 3.24918 5.0649 4.7782 5.63828 6.21166 5.63828L 5.92497 6.40279C 4.39595 6.30723 2.58023 5.44715 2.58023 3.63144C 2.58023 2.29354 3.34474 1.24233 4.20482 0.764513C 3.44031 0.860077 1.14677 1.05121 0.191129 1.24233L 0 0.668947C 0.382256 0.668947 0.573384 0.573384 0.764512 0.573384ZM 6.30723 3.05805L 5.82941 3.24918C 5.63828 2.86692 5.35159 2.3891 5.16046 2.00685L 5.63828 1.81572C 5.82941 2.10241 6.1161 2.67579 6.30723 3.05805ZM 7.26287 2.67579L 6.78505 2.86692C 6.59392 2.48467 6.30723 2.00684 6.02053 1.62459L 6.49835 1.43346C 6.68948 1.72015 7.07174 2.29354 7.26287 2.67579Z" stroke-width="0.2" stroke-miterlimit="10" transform="translate(39.1814 25.2292)" stroke="white"/>
</g>
<g id="Vector_13">
<path d="M 7.74069 5.16046L 4.20482 5.16046L 4.20482 7.07174C 4.20482 7.54956 4.10926 7.74069 3.727 7.83625C 3.44031 7.93182 2.86692 7.93182 1.91128 7.93182C 1.81572 7.74069 1.72015 7.454 1.62459 7.26287C 2.3891 7.26287 3.05805 7.26287 3.24918 7.26287C 3.44031 7.26287 3.53587 7.16731 3.53587 6.97618L 3.53587 5.0649L 0 5.0649L 0 4.39595L 3.53587 4.39595L 3.53587 2.96249L 0.573383 2.96249L 0.573383 2.48467L 3.53587 2.48467L 3.53587 1.14677C 2.58023 1.24233 1.62459 1.3379 0.764512 1.3379C 0.764512 1.14677 0.668947 0.955641 0.573383 0.764513C 2.58023 0.668949 5.06489 0.477822 6.40279 1.45819e-06L 6.88061 0.477822C 6.1161 0.66895 5.25602 0.860078 4.20482 0.955642L 4.20482 2.48467L 7.26287 2.48467L 7.26287 3.05805L 4.20482 3.05805L 4.20482 4.49151L 7.74069 4.49151L 7.74069 5.16046Z" transform="translate(47.3047 24.2734)" fill="white"/>
<path d="M 7.74069 5.16046L 4.20482 5.16046L 4.20482 7.07174C 4.20482 7.54956 4.10926 7.74069 3.727 7.83625C 3.44031 7.93182 2.86692 7.93182 1.91128 7.93182C 1.81572 7.74069 1.72015 7.454 1.62459 7.26287C 2.3891 7.26287 3.05805 7.26287 3.24918 7.26287C 3.44031 7.26287 3.53587 7.16731 3.53587 6.97618L 3.53587 5.0649L 0 5.0649L 0 4.39595L 3.53587 4.39595L 3.53587 2.96249L 0.573383 2.96249L 0.573383 2.48467L 3.53587 2.48467L 3.53587 1.14677C 2.58023 1.24233 1.62459 1.3379 0.764512 1.3379C 0.764512 1.14677 0.668947 0.955641 0.573383 0.764513C 2.58023 0.668949 5.06489 0.477822 6.40279 1.45819e-06L 6.88061 0.477822C 6.1161 0.66895 5.25602 0.860078 4.20482 0.955642L 4.20482 2.48467L 7.26287 2.48467L 7.26287 3.05805L 4.20482 3.05805L 4.20482 4.49151L 7.74069 4.49151L 7.74069 5.16046Z" stroke-width="0.2" stroke-miterlimit="10" transform="translate(47.3047 24.2734)" stroke="white"/>
</g>
<g id="Vector_14">
<path d="M 1.05121 0.191129C 0.955644 0.382257 0.955639 0.573384 0.860075 0.764512C 0.668947 1.52902 0.477817 3.05805 0.477817 4.01369C 0.477817 4.39595 0.477823 4.7782 0.573387 5.16046C 0.764515 4.7782 0.955644 4.30038 1.05121 3.91813L 1.43346 4.20482C 1.24233 4.7782 0.955639 5.73385 0.860075 6.1161C 0.860075 6.21167 0.860075 6.40279 0.860075 6.49836L 0.860075 6.78505L 0.286692 6.78505C 0.0955641 6.21166 -2.91638e-06 5.16046 -2.91638e-06 4.01369C -2.91638e-06 2.77136 0.286691 1.3379 0.382255 0.573383C 0.382255 0.382255 0.477817 0.191128 0.477817 0L 1.05121 0.191129ZM 2.96249 4.39595C 2.86692 4.68264 2.86692 4.96933 2.86692 5.16046C 2.86692 5.54272 3.15361 5.92497 4.30038 5.92497C 5.06489 5.92497 5.73385 5.82941 6.40279 5.73384L 6.40279 6.49836C 5.92497 6.59392 5.16046 6.68948 4.30038 6.68948C 2.86692 6.68948 2.19797 6.21166 2.19797 5.44715C 2.19797 5.16046 2.29354 4.7782 2.29354 4.39595L 2.96249 4.39595ZM 2.67579 0.860078C 3.63143 1.05121 5.35159 0.955642 6.21166 0.860078L 6.21166 1.52902C 5.25602 1.62459 3.63143 1.62459 2.67579 1.52902L 2.67579 0.860078Z" transform="translate(56.574 24.8469)" fill="white"/>
<path d="M 1.05121 0.191129C 0.955644 0.382257 0.955639 0.573384 0.860075 0.764512C 0.668947 1.52902 0.477817 3.05805 0.477817 4.01369C 0.477817 4.39595 0.477823 4.7782 0.573387 5.16046C 0.764515 4.7782 0.955644 4.30038 1.05121 3.91813L 1.43346 4.20482C 1.24233 4.7782 0.955639 5.73385 0.860075 6.1161C 0.860075 6.21167 0.860075 6.40279 0.860075 6.49836L 0.860075 6.78505L 0.286692 6.78505C 0.0955641 6.21166 -2.91638e-06 5.16046 -2.91638e-06 4.01369C -2.91638e-06 2.77136 0.286691 1.3379 0.382255 0.573383C 0.382255 0.382255 0.477817 0.191128 0.477817 0L 1.05121 0.191129ZM 2.96249 4.39595C 2.86692 4.68264 2.86692 4.96933 2.86692 5.16046C 2.86692 5.54272 3.15361 5.92497 4.30038 5.92497C 5.06489 5.92497 5.73385 5.82941 6.40279 5.73384L 6.40279 6.49836C 5.92497 6.59392 5.16046 6.68948 4.30038 6.68948C 2.86692 6.68948 2.19797 6.21166 2.19797 5.44715C 2.19797 5.16046 2.29354 4.7782 2.29354 4.39595L 2.96249 4.39595ZM 2.67579 0.860078C 3.63143 1.05121 5.35159 0.955642 6.21166 0.860078L 6.21166 1.52902C 5.25602 1.62459 3.63143 1.62459 2.67579 1.52902L 2.67579 0.860078Z" stroke-width="0.2" stroke-miterlimit="10" transform="translate(56.574 24.8469)" stroke="white"/>
</g>
<g id="Vector_15">
<path d="M 4.39594 0C 4.39594 1.52903 4.58708 4.7782 7.93182 6.78505C 7.74069 6.88061 7.54956 7.16731 7.454 7.35843C 5.35159 6.1161 4.39595 4.20482 4.01369 2.58023C 3.34475 4.7782 2.29353 6.40279 0.573381 7.35843C 0.477817 7.26287 0.191127 6.97618 -1.45819e-06 6.88061C 1.91128 5.92497 2.96248 4.20482 3.4403 1.72015L 3.82256 1.81572C 3.82256 1.3379 3.727 0.955641 3.727 0.668949L 1.62459 0.668949L 1.62459 0L 4.39594 0Z" transform="translate(64.1238 24.8469)" fill="white"/>
<path d="M 4.39594 0C 4.39594 1.52903 4.58708 4.7782 7.93182 6.78505C 7.74069 6.88061 7.54956 7.16731 7.454 7.35843C 5.35159 6.1161 4.39595 4.20482 4.01369 2.58023C 3.34475 4.7782 2.29353 6.40279 0.573381 7.35843C 0.477817 7.26287 0.191127 6.97618 -1.45819e-06 6.88061C 1.91128 5.92497 2.96248 4.20482 3.4403 1.72015L 3.82256 1.81572C 3.82256 1.3379 3.727 0.955641 3.727 0.668949L 1.62459 0.668949L 1.62459 0L 4.39594 0Z" stroke-width="0.2" stroke-miterlimit="10" transform="translate(64.1238 24.8469)" stroke="white"/>
</g>
<g id="Vector_16">
<path d="M 7.83625 6.1161C 7.35843 6.59392 6.88061 6.78505 6.30723 6.78505C 5.73384 6.78505 5.35159 6.40279 5.35159 5.73385C 5.35159 4.7782 5.63828 3.34474 5.63828 2.58023C 5.63828 2.10241 5.35158 1.91128 4.96933 1.91128C 4.30038 1.91128 3.24918 2.67579 2.48466 3.53587C 2.48466 3.91812 2.48466 4.20482 2.48466 4.49151C 2.48466 5.25602 2.48466 5.82941 2.48466 6.59392C 2.48466 6.78505 2.48466 6.97618 2.48466 7.07174L 1.72016 7.07174C 1.72016 6.97618 1.72016 6.68948 1.72016 6.59392C 1.72016 5.73384 1.72016 5.35159 1.72016 4.39595C 1.72016 4.30038 1.72016 4.20482 1.72016 4.10926C 1.3379 4.7782 0.764514 5.54271 0.382258 6.1161L 0 5.44715C 0.47782 4.87377 1.43346 3.53587 1.91128 2.86692C 1.91128 2.58023 1.91128 2.29354 2.00684 2.00685C 1.62459 2.00685 0.860078 2.19797 0.382258 2.19797L 0.286695 1.52903C 0.477823 1.52903 0.66895 1.52903 0.860078 1.52903C 1.14677 1.52903 1.62459 1.43346 2.10241 1.43346C 2.10241 1.05121 2.10241 0.764511 2.10241 0.668947C 2.10241 0.477819 2.10241 0.286694 2.10241 1.45819e-06L 2.96248 1.45819e-06C 2.96248 0.19113 2.86692 0.668949 2.77136 1.24233L 3.05805 1.52903C 2.96248 1.72015 2.77136 1.91128 2.6758 2.10241C 2.6758 2.29354 2.6758 2.3891 2.6758 2.58023C 3.34474 2.00684 4.39595 1.14677 5.25602 1.14677C 6.02054 1.14677 6.49836 1.62459 6.49836 2.29354C 6.49836 3.15361 6.21166 4.58707 6.21166 5.44715C 6.21166 5.73384 6.30723 5.92497 6.68948 5.92497C 7.07174 5.92497 7.54956 5.63828 7.93182 5.25602L 7.83625 6.1161Z" transform="translate(72.6284 24.7512)" fill="white"/>
<path d="M 7.83625 6.1161C 7.35843 6.59392 6.88061 6.78505 6.30723 6.78505C 5.73384 6.78505 5.35159 6.40279 5.35159 5.73385C 5.35159 4.7782 5.63828 3.34474 5.63828 2.58023C 5.63828 2.10241 5.35158 1.91128 4.96933 1.91128C 4.30038 1.91128 3.24918 2.67579 2.48466 3.53587C 2.48466 3.91812 2.48466 4.20482 2.48466 4.49151C 2.48466 5.25602 2.48466 5.82941 2.48466 6.59392C 2.48466 6.78505 2.48466 6.97618 2.48466 7.07174L 1.72016 7.07174C 1.72016 6.97618 1.72016 6.68948 1.72016 6.59392C 1.72016 5.73384 1.72016 5.35159 1.72016 4.39595C 1.72016 4.30038 1.72016 4.20482 1.72016 4.10926C 1.3379 4.7782 0.764514 5.54271 0.382258 6.1161L 0 5.44715C 0.47782 4.87377 1.43346 3.53587 1.91128 2.86692C 1.91128 2.58023 1.91128 2.29354 2.00684 2.00685C 1.62459 2.00685 0.860078 2.19797 0.382258 2.19797L 0.286695 1.52903C 0.477823 1.52903 0.66895 1.52903 0.860078 1.52903C 1.14677 1.52903 1.62459 1.43346 2.10241 1.43346C 2.10241 1.05121 2.10241 0.764511 2.10241 0.668947C 2.10241 0.477819 2.10241 0.286694 2.10241 1.45819e-06L 2.96248 1.45819e-06C 2.96248 0.19113 2.86692 0.668949 2.77136 1.24233L 3.05805 1.52903C 2.96248 1.72015 2.77136 1.91128 2.6758 2.10241C 2.6758 2.29354 2.6758 2.3891 2.6758 2.58023C 3.34474 2.00684 4.39595 1.14677 5.25602 1.14677C 6.02054 1.14677 6.49836 1.62459 6.49836 2.29354C 6.49836 3.15361 6.21166 4.58707 6.21166 5.44715C 6.21166 5.73384 6.30723 5.92497 6.68948 5.92497C 7.07174 5.92497 7.54956 5.63828 7.93182 5.25602L 7.83625 6.1161Z" stroke-width="0.2" stroke-miterlimit="10" transform="translate(72.6284 24.7512)" stroke="white"/>
</g>
<g id="Vector_17">
<path d="M 3.34474 2.3891C 3.34474 2.96249 3.34475 3.727 3.44031 4.49151C 4.49151 4.7782 5.44715 5.35159 6.1161 5.92497L 5.73384 6.59392C 5.16046 6.02054 4.39595 5.54272 3.53587 5.16046C 3.53587 5.35159 3.53587 5.54272 3.53587 5.73384C 3.53587 6.40279 3.05805 7.07174 2.00685 7.07174C 0.860079 7.07174 -2.91638e-06 6.68948 -2.91638e-06 5.73384C -2.91638e-06 4.96933 0.66895 4.30038 2.10241 4.30038C 2.3891 4.30038 2.58023 4.30038 2.86692 4.39595C 2.86692 3.727 2.77136 2.96249 2.77136 2.3891C 2.77136 1.91128 2.77136 1.14677 2.77136 0.860078C 2.77136 0.573386 2.77136 0.191128 2.67579 0L 3.53587 0C 3.53587 0.191128 3.44031 0.573386 3.44031 0.860078C 3.44031 1.05121 3.44031 1.43346 3.44031 1.72015C 4.10926 1.72015 5.16046 1.62459 5.92497 1.52902L 5.92497 2.19797C 5.16046 2.19797 4.01369 2.29354 3.34474 2.3891ZM 2.77136 4.96933C 2.48466 4.87377 2.19797 4.87377 1.91128 4.87377C 1.0512 4.87377 0.573387 5.16046 0.573387 5.63828C 0.573387 6.1161 1.0512 6.40279 1.91128 6.40279C 2.58023 6.40279 2.86692 6.1161 2.86692 5.54271C 2.77135 5.35159 2.77136 5.16046 2.77136 4.96933Z" transform="translate(81.8989 24.8469)" fill="white"/>
<path d="M 3.34474 2.3891C 3.34474 2.96249 3.34475 3.727 3.44031 4.49151C 4.49151 4.7782 5.44715 5.35159 6.1161 5.92497L 5.73384 6.59392C 5.16046 6.02054 4.39595 5.54272 3.53587 5.16046C 3.53587 5.35159 3.53587 5.54272 3.53587 5.73384C 3.53587 6.40279 3.05805 7.07174 2.00685 7.07174C 0.860079 7.07174 -2.91638e-06 6.68948 -2.91638e-06 5.73384C -2.91638e-06 4.96933 0.66895 4.30038 2.10241 4.30038C 2.3891 4.30038 2.58023 4.30038 2.86692 4.39595C 2.86692 3.727 2.77136 2.96249 2.77136 2.3891C 2.77136 1.91128 2.77136 1.14677 2.77136 0.860078C 2.77136 0.573386 2.77136 0.191128 2.67579 0L 3.53587 0C 3.53587 0.191128 3.44031 0.573386 3.44031 0.860078C 3.44031 1.05121 3.44031 1.43346 3.44031 1.72015C 4.10926 1.72015 5.16046 1.62459 5.92497 1.52902L 5.92497 2.19797C 5.16046 2.19797 4.01369 2.29354 3.34474 2.3891ZM 2.77136 4.96933C 2.48466 4.87377 2.19797 4.87377 1.91128 4.87377C 1.0512 4.87377 0.573387 5.16046 0.573387 5.63828C 0.573387 6.1161 1.0512 6.40279 1.91128 6.40279C 2.58023 6.40279 2.86692 6.1161 2.86692 5.54271C 2.77135 5.35159 2.77136 5.16046 2.77136 4.96933Z" stroke-width="0.2" stroke-miterlimit="10" transform="translate(81.8989 24.8469)" stroke="white"/>
</g>
<g id="Vector_18">
<path d="M 3.15362 2.58023C 2.19798 2.58023 1.3379 2.86692 0.860077 3.05805C 0.573384 3.15361 0.382259 3.24918 0.191131 3.34474L -1.45819e-06 2.58023C 0.191127 2.58023 0.477822 2.48466 0.764514 2.48466C 1.3379 2.3891 2.29354 2.10241 3.34474 2.10241C 4.58707 2.10241 5.44715 2.77136 5.44715 4.01369C 5.44715 5.82941 3.82257 6.88061 1.62459 7.26287L 1.24233 6.59392C 3.34474 6.30723 4.7782 5.54272 4.7782 4.01369C 4.58707 3.05805 4.01369 2.58023 3.15362 2.58023ZM 4.68264 0.382258L 4.58708 1.0512C 3.63144 0.955639 1.91128 0.860077 0.955639 0.668949L 1.0512 0C 2.00684 0.191128 3.82256 0.382258 4.68264 0.382258Z" transform="translate(89.926 24.8469)" fill="white"/>
<path d="M 3.15362 2.58023C 2.19798 2.58023 1.3379 2.86692 0.860077 3.05805C 0.573384 3.15361 0.382259 3.24918 0.191131 3.34474L -1.45819e-06 2.58023C 0.191127 2.58023 0.477822 2.48466 0.764514 2.48466C 1.3379 2.3891 2.29354 2.10241 3.34474 2.10241C 4.58707 2.10241 5.44715 2.77136 5.44715 4.01369C 5.44715 5.82941 3.82257 6.88061 1.62459 7.26287L 1.24233 6.59392C 3.34474 6.30723 4.7782 5.54272 4.7782 4.01369C 4.58707 3.05805 4.01369 2.58023 3.15362 2.58023ZM 4.68264 0.382258L 4.58708 1.0512C 3.63144 0.955639 1.91128 0.860077 0.955639 0.668949L 1.0512 0C 2.00684 0.191128 3.82256 0.382258 4.68264 0.382258Z" stroke-width="0.2" stroke-miterlimit="10" transform="translate(89.926 24.8469)" stroke="white"/>
</g>
</g>
</g>
</g>
</g>
</g>
<defs>

<linearGradient id="paint0_linear" x2="1" gradientUnits="userSpaceOnUse" gradientTransform="matrix(-16.0379 16.0379 16.0379 16.0379 3.35287 -6.86293)">
<stop stop-color="#00A0FF"/>
<stop offset="0.00657445" stop-color="#00A1FF"/>
<stop offset="0.2601" stop-color="#00BEFF"/>
<stop offset="0.5122" stop-color="#00D2FF"/>
<stop offset="0.7604" stop-color="#00DFFF"/>
<stop offset="1" stop-color="#00E3FF"/>
</linearGradient>
<linearGradient id="paint1_linear" x2="1" gradientUnits="userSpaceOnUse" gradientTransform="translate(10.4494 -7.54674) scale(-23.1235 23.1235)">
<stop stop-color="#FFE000"/>
<stop offset="0.4087" stop-color="#FFBD00"/>
<stop offset="0.7754" stop-color="#FFA500"/>
<stop offset="1" stop-color="#FF9C00"/>
</linearGradient>
<linearGradient id="paint2_linear" x2="1" gradientUnits="userSpaceOnUse" gradientTransform="matrix(-21.7488 21.7488 21.7488 21.7488 2.91265 -8.68013)">
<stop stop-color="#FF3A44"/>
<stop offset="1" stop-color="#C31162"/>
</linearGradient>
<linearGradient id="paint3_linear" x2="1" gradientUnits="userSpaceOnUse" gradientTransform="matrix(9.7118 9.7117 9.7117 -9.71179 -7.82092 -1.82888)">
<stop stop-color="#32A071"/>
<stop offset="0.0685" stop-color="#2DA771"/>
<stop offset="0.4762" stop-color="#15CF74"/>
<stop offset="0.8009" stop-color="#06E775"/>
<stop offset="1" stop-color="#00F076"/>
</linearGradient>

</defs>
</svg>

